<?xml version="1.0" encoding="UTF-8" standalone="no"?>
<svg
   width="236"
   height="188"
   viewBox="0 0 236 188"
   role="img"
   aria-labelledby="title desc"
   version="1.1"
   id="svg19"
   xmlns="http://www.w3.org/2000/svg"
   xmlns:svg="http://www.w3.org/2000/svg">
  <title
     id="title">CMD-LABS logo</title>
  <desc
     id="desc">Vector recreation of the CMD-LABS logo with circuit icon and wordmark.</desc>
  <defs
     id="defs2">
    <filter
       id="softGlow"
       x="-inf"
       y="-1.275"
       width="inf"
       height="3.55">
      <feGaussianBlur
         stdDeviation="1.5"
         result="blur"
         id="feGaussianBlur1" />
      <feMerge
         id="feMerge2">
        <feMergeNode
           in="blur"
           id="feMergeNode1" />
        <feMergeNode
           in="SourceGraphic"
           id="feMergeNode2" />
      </feMerge>
    </filter>
    <style
       id="style2">
      .bg{fill:#1d0058}.node{stroke:#2a155d;stroke-width:.8}.line{fill:none;stroke-linecap:round;stroke-linejoin:round;filter:url(#softGlow)}
      .cyan{stroke:#00bce8}.magenta{stroke:#ff00a8}.orange{stroke:#ff8300}.red{stroke:#ff1856}.purple{stroke:#5e3cff}
      .dot-cyan{fill:#00c8f2}.dot-magenta{fill:#ff00ae}.dot-orange{fill:#ff8a00}.dot-red{fill:#ff1a5a}.dot-purple{fill:#6050ff}
      .word{fill:#f7f5ff;font-family:'DejaVu Sans Mono','Consolas','Menlo',monospace;font-size:22px;font-weight:700;letter-spacing:1.2px}
    </style>
  </defs>
  <rect
     class="bg"
     width="236"
     height="188"
     id="rect2" />
  <!-- Circuit mark -->
  <g
     transform="translate(0,0)"
     stroke-width="3"
     id="g19">
    <!-- left / top left traces -->
    <path
       class="line cyan"
       d="M110 62H98l-5-5v-7"
       id="path2" />
    <circle
       class="dot-cyan node"
       cx="93"
       cy="43"
       r="3"
       id="circle2" />
    <path
       class="line magenta"
       d="M105 70H91l-5-5h-8"
       id="path3" />
    <circle
       class="dot-cyan node"
       cx="78"
       cy="67"
       r="3"
       id="circle3" />
    <path
       class="line purple"
       d="M103 82H92l-8 8v6"
       id="path4" />
    <circle
       class="dot-purple node"
       cx="85"
       cy="97"
       r="3"
       id="circle4" />
    <path
       class="line magenta"
       d="M113 55v-9l-7-7"
       id="path5" />
    <circle
       class="dot-magenta node"
       cx="103"
       cy="38"
       r="2.6"
       id="circle5" />
    <!-- top / center traces -->
    <path
       class="line magenta"
       d="M122 57V35"
       id="path6" />
    <circle
       class="dot-magenta node"
       cx="122"
       cy="33"
       r="3"
       id="circle6" />
    <path
       class="line orange"
       d="M130 60v-9"
       id="path7" />
    <circle
       class="dot-orange node"
       cx="130"
       cy="48"
       r="2.6"
       id="circle7" />
    <!-- right traces -->
    <path
       class="line orange"
       d="M129 65h10l5-5h5"
       id="path8" />
    <circle
       class="dot-cyan node"
       cx="150"
       cy="50"
       r="3"
       id="circle8" />
    <path
       class="line red"
       d="M131 77h12l4-4"
       id="path9" />
    <circle
       class="dot-red node"
       cx="149"
       cy="70"
       r="2.6"
       id="circle9" />
    <path
       class="line purple"
       d="M132 84h14l5-5h6"
       id="path10" />
    <circle
       class="dot-purple node"
       cx="157"
       cy="79"
       r="3"
       id="circle10" />
    <path
       class="line magenta"
       d="M128 91l8 8h6"
       id="path11" />
    <circle
       class="dot-magenta node"
       cx="142"
       cy="103"
       r="2.6"
       id="circle11" />
    <!-- lower traces -->
    <path
       class="line cyan"
       d="M116 95v13"
       id="path12" />
    <circle
       class="dot-cyan node"
       cx="116"
       cy="111"
       r="2.7"
       id="circle12" />
    <path
       class="line orange"
       d="M109 91h-9l-5 5"
       id="path13" />
    <circle
       class="dot-orange node"
       cx="96"
       cy="96"
       r="2.6"
       id="circle13" />
    <!-- central monogram-like traces -->
    <path
       class="line magenta"
       d="M118 63c-5 0-8 3-8 8v9c0 5 3 8 8 8"
       id="path14" />
    <path
       class="line orange"
       d="M126 63c5 0 8 3 8 8"
       id="path15" />
    <path
       class="line red"
       d="M126 88c5 0 8-3 8-8"
       id="path16" />
    <circle
       class="dot-red node"
       cx="118"
       cy="63"
       r="2.4"
       id="circle16" />
    <circle
       class="dot-orange node"
       cx="126"
       cy="63"
       r="2.4"
       id="circle17" />
    <circle
       class="dot-magenta node"
       cx="118"
       cy="88"
       r="2.4"
       id="circle18" />
    <circle
       class="dot-red node"
       cx="126"
       cy="88"
       r="2.4"
       id="circle19" />
  </g>
  <!-- Wordmark -->
  <path
     d="m 66.612305,143.53809 q -0.751953,0.38671 -1.579102,0.58007 -0.827148,0.19336 -1.740234,0.19336 -3.244141,0 -4.952149,-2.13769 -1.708008,-2.1377 -1.708008,-6.17676 0,-4.0498 1.708008,-6.1875 1.708008,-2.13769 4.952149,-2.13769 0.913086,0 1.750976,0.19335 0.837891,0.19336 1.56836,0.58008 v 3.52344 q -0.816407,-0.75195 -1.589844,-1.0957 -0.762695,-0.3545 -1.579102,-0.3545 -1.740234,0 -2.631836,1.38575 -0.880859,1.375 -0.880859,4.09277 0,2.70703 0.880859,4.09277 0.891602,1.375 2.631836,1.375 0.816407,0 1.579102,-0.34375 0.773437,-0.35449 1.589844,-1.10644 z m 3.75664,-15.57618 h 3.78125 l 1.912109,7.03614 1.901368,-7.03614 h 3.802734 V 144 H 79.03789 v -12.84766 l -1.697265,7.01465 h -2.524414 l -1.71875,-7.01465 V 144 h -2.728516 z m 18.161914,2.85743 v 10.32324 h 0.859375 q 1.869141,0 2.664062,-1.1709 0.794922,-1.18164 0.794922,-4.00684 0,-2.80371 -0.794922,-3.97461 -0.794921,-1.17089 -2.664062,-1.17089 z m -3.168945,-2.85743 h 3.394531 q 3.931641,0 5.661133,1.87989 1.729492,1.86914 1.729492,6.12304 0,4.26465 -1.729492,6.15528 Q 92.688086,144 88.756445,144 h -3.394531 z m 16.206836,8.14258 h 6.77832 v 3.12598 h -6.77832 z M 115.19746,144 v -16.03809 h 3.16895 v 13.24512 h 6.77832 V 144 Z m 18.64531,-13.1377 -1.49316,6.56348 h 2.99707 z m -1.93359,-2.90039 h 3.87793 L 140.11621,144 h -3.16894 l -0.98829,-3.96387 h -4.24316 L 130.74902,144 h -3.16894 z m 14.16582,8.75489 v 4.74804 h 2.10547 q 1.51464,0 2.11621,-0.51562 0.6123,-0.51563 0.6123,-1.79395 0,-1.2998 -0.63379,-1.86914 -0.63379,-0.56933 -2.09472,-0.56933 z m 0,-6.25196 v 3.72754 h 2.10547 q 1.20312,0 1.708,-0.42968 0.51563,-0.42969 0.51563,-1.41797 0,-0.98828 -0.52637,-1.42871 -0.51562,-0.45118 -1.69726,-0.45118 z m -3.06153,-2.52441 h 5.167 q 2.6748,0 4.01757,1.02051 1.35352,1.00976 1.35352,3.02929 0,1.54688 -0.79492,2.417 -0.79492,0.87011 -2.33106,1.00976 1.83692,0.18262 2.76075,1.23535 0.93457,1.05274 0.93457,2.94336 0,2.32032 -1.39649,3.36231 Q 151.32793,144 148.18047,144 h -5.167 z m 18.58087,9.02344 q -2.39551,-0.91309 -3.24414,-1.91211 -0.84864,-1.00977 -0.84864,-2.70703 0,-2.18067 1.39649,-3.42676 1.39648,-1.24609 3.83496,-1.24609 1.10644,0 2.21289,0.25781 1.10645,0.24707 2.19141,0.74121 v 3.09375 q -1.02051,-0.71973 -2.07325,-1.0957 -1.05273,-0.37598 -2.08398,-0.37598 -1.14941,0 -1.76172,0.46191 -0.6123,0.46192 -0.6123,1.32129 0,0.66602 0.44043,1.10645 0.45117,0.42968 1.86914,0.95605 l 1.36425,0.51563 q 1.9336,0.70898 2.84668,1.87988 0.91309,1.1709 0.91309,2.9541 0,2.42774 -1.43945,3.63086 -1.42871,1.19238 -4.3291,1.19238 -1.19239,0 -2.39551,-0.29004 -1.19239,-0.27929 -2.30957,-0.83789 v -3.27636 q 1.26758,0.90234 2.44922,1.34277 1.19238,0.44043 2.35253,0.44043 1.1709,0 1.81543,-0.52637 0.64454,-0.53711 0.64454,-1.49316 0,-0.71973 -0.42969,-1.25684 -0.42969,-0.54785 -1.2461,-0.85937 z"
     id="text19"
     class="word"
     style="font-weight:700;font-size:22px;font-family:'DejaVu Sans Mono', Consolas, Menlo, monospace;letter-spacing:1.2px;fill:#f7f5ff"
     aria-label="CMD-LABS" />
</svg>
