<svg xmlns="http://www.w3.org/2000/svg" width="1254" height="1254" viewBox="0 0 1254 1254" role="img" aria-label="CMD-LABS logo">
  <defs>
    <linearGradient id="brandGrad" x1="0" y1="0" x2="1254" y2="0" gradientUnits="userSpaceOnUse">
      <stop offset="0" stop-color="#03E4D2"/>
      <stop offset="1" stop-color="#14F95F"/>
    </linearGradient>
  </defs>
  <g fill="url(#brandGrad)" stroke="none" transform="translate(0.000000,1254.000000) scale(0.100000,-0.100000)"
 >
<path d="M1130 7226 l0 -213 218 -148 c119 -82 267 -183 327 -225 61 -43 180
-124 265 -182 85 -58 155 -112 155 -120 0 -8 -51 -50 -113 -92 -131 -89 -276
-188 -379 -261 -39 -27 -162 -113 -272 -189 l-201 -140 0 -218 c0 -120 3 -218
6 -218 4 0 36 22 73 48 36 27 239 168 451 315 626 433 712 492 782 542 l66 48
7 101 c4 56 5 128 3 160 l-3 59 -137 96 c-76 53 -289 202 -474 331 -707 493
-746 520 -762 520 -9 0 -12 -56 -12 -214z"/>
<path d="M8173 6693 l-23 -4 0 -355 0 -356 29 -29 29 -29 262 0 261 0 -3 56
-3 55 -230 2 -230 2 -3 328 c-2 314 -3 327 -21 327 -11 0 -25 2 -33 4 -7 2
-23 1 -35 -1z"/>
<path d="M9364 6693 c-35 -5 -29 6 -112 -198 -120 -292 -222 -551 -222 -563 0
-8 18 -12 54 -12 l54 0 52 128 c28 70 67 163 85 207 18 44 51 128 72 187 21
59 43 108 49 108 7 0 15 -12 19 -27 3 -15 26 -77 49 -138 24 -60 74 -190 111
-287 l68 -178 58 0 c33 0 59 4 59 10 0 6 -24 72 -54 148 -30 75 -92 234 -139
352 -46 118 -88 225 -91 238 -5 14 -15 22 -31 22 -13 0 -29 2 -37 3 -7 2 -27
2 -44 0z"/>
<path d="M10124 6689 c-29 -10 -64 -57 -64 -85 l0 -24 244 0 c289 0 276 5 276
-103 0 -40 -4 -78 -8 -85 -15 -24 -77 -32 -234 -32 l-158 0 0 80 c0 44 -4 80
-9 80 -5 0 -31 -30 -58 -67 l-48 -68 -3 -233 -3 -233 265 3 264 3 39 31 c59
48 75 92 71 193 -2 70 -7 92 -25 118 -28 39 -28 46 -1 84 18 24 24 47 27 110
4 99 -1 119 -41 165 -54 62 -78 67 -308 69 -113 1 -215 -1 -226 -6z m434 -455
c19 -13 22 -24 22 -88 0 -111 0 -111 -221 -112 l-179 0 0 108 0 108 178 0
c144 0 182 -3 200 -16z"/>
<path d="M11172 6689 c-56 -11 -100 -47 -128 -105 -24 -49 -26 -63 -21 -128 6
-79 21 -118 59 -153 47 -45 87 -53 251 -53 189 0 193 -2 191 -113 -2 -108 0
-107 -250 -107 -238 0 -254 -4 -254 -72 l0 -39 243 3 c275 3 297 9 345 81 25
37 27 49 27 136 0 119 -19 163 -85 198 -39 21 -56 23 -191 23 -143 0 -195 8
-211 33 -4 7 -8 42 -8 78 0 107 -10 103 261 109 l232 5 1 55 1 55 -217 0
c-119 0 -230 -3 -246 -6z"/>
<path d="M9370 6160 c-11 -21 -20 -42 -20 -45 0 -3 20 -5 45 -5 25 0 45 2 45
5 0 10 -40 85 -45 85 -3 0 -14 -18 -25 -40z"/>
<path d="M2547 5663 c-4 -3 -7 -78 -7 -165 l0 -158 643 2 642 3 3 163 2 162
-638 0 c-351 0 -642 -3 -645 -7z"/>
</g>
  <g fill="#FFFFFF" stroke="none" transform="translate(0.000000,1254.000000) scale(0.100000,-0.100000)"
 >
<path d="M4614 6691 c-61 -16 -105 -52 -130 -105 -23 -49 -24 -60 -24 -281 0
-256 6 -285 69 -338 50 -42 92 -48 323 -45 l213 3 3 52 3 52 -224 3 c-205 3
-227 5 -246 22 -20 18 -21 28 -21 250 0 193 3 235 16 254 15 22 19 22 240 22
192 0 225 2 230 15 8 20 -14 73 -36 85 -22 12 -377 22 -416 11z"/>
<path d="M5464 6692 c-18 -2 -40 -12 -50 -24 -18 -19 -19 -46 -22 -384 l-3
-364 61 0 61 0 -3 285 c-3 307 0 327 43 243 47 -95 181 -327 194 -338 7 -6 31
-10 52 -8 36 3 40 7 95 98 31 52 80 139 108 193 29 54 58 97 66 97 12 0 14
-44 14 -285 l0 -285 55 0 55 0 0 365 c0 352 -1 366 -20 385 -15 15 -33 20 -67
20 l-48 -1 -56 -97 c-31 -53 -87 -152 -125 -219 -38 -68 -74 -123 -80 -123 -7
0 -38 46 -70 103 -200 353 -194 346 -260 339z"/>
<path d="M6603 6690 c-92 -14 -94 -23 -91 -404 l3 -318 29 -25 29 -25 226 4
c242 3 258 6 308 60 48 51 53 82 53 325 0 201 -3 233 -19 269 -22 49 -65 91
-106 103 -37 11 -374 20 -432 11z m417 -132 c19 -21 20 -34 20 -249 0 -298 20
-273 -224 -277 l-186 -3 0 275 0 276 185 0 c177 0 185 -1 205 -22z"/>
<path d="M7512 6344 c-16 -11 -22 -25 -22 -55 l0 -39 170 0 170 0 0 45 c0 59
-15 65 -173 65 -95 0 -128 -4 -145 -16z"/>
</g>
</svg>
